<svg xmlns="http://www.w3.org/2000/svg" data-name="Layer 1" viewBox="0 0 64 80" x="0px" y="0px" transform="matrix(1, 0, 0, 1, 0, 0)"><title>1</title><path d="M62.06,34.18H57.75a6.07,6.07,0,0,0,1.34-2.62,3,3,0,0,0-.42-2.32,3.34,3.34,0,0,0-2.38-1.35A7.11,7.11,0,0,0,51,29.67a8.85,8.85,0,0,0-1.8,2.17,9.26,9.26,0,0,0-1.68-2.13,6.91,6.91,0,0,0-4.39-1.89v-4.2a1.42,1.42,0,0,0,1.36-1.42v-6a1.43,1.43,0,0,0-1.43-1.44H37.73a6.64,6.64,0,0,0,1.58-2.95,3.17,3.17,0,0,0-.45-2.42A3.42,3.42,0,0,0,36.38,8a7.47,7.47,0,0,0-5.61,1.89,9,9,0,0,0-2,2.47,10.22,10.22,0,0,0-1.89-2.44,7.11,7.11,0,0,0-5.47-2,3.63,3.63,0,0,0-2.66,1.45,3.12,3.12,0,0,0-.44,2.42,6.47,6.47,0,0,0,1.57,2.95H14.53A1.43,1.43,0,0,0,13.1,16.2v6a1.42,1.42,0,0,0,1.37,1.42v5.3a6.89,6.89,0,0,0-1.57,1,7.61,7.61,0,0,0-1.43,1.66A8,8,0,0,0,10.15,30a5.93,5.93,0,0,0-4.6-1.65,3.16,3.16,0,0,0-2.33,1.27,2.85,2.85,0,0,0-.4,2.16,5.18,5.18,0,0,0,.94,2H1.43A1.43,1.43,0,0,0,0,35.2v4.12a1.43,1.43,0,0,0,1.43,1.43h.42V54.66a1.43,1.43,0,0,0,1.43,1.43H19.73a1.44,1.44,0,0,0,1.44-1.43V50.28H36.31v4.38a1.43,1.43,0,0,0,1.43,1.43h23a1.43,1.43,0,0,0,1.43-1.43V42.54A1.93,1.93,0,0,0,64,40.61V36.12A1.94,1.94,0,0,0,62.06,34.18ZM8.21,32.07a6,6,0,0,1,1.22,1.7H8.2a2.62,2.62,0,0,1-.67-.33,4.28,4.28,0,0,1-1.9-2.23A2.94,2.94,0,0,1,8.21,32.07Zm1.86,21.16H4.71V40.75h5.36Zm0-15.35H2.87V36.63h7.2ZM32.62,12.06a4.71,4.71,0,0,1,3.31-1.24,1,1,0,0,1,.57.18c.13.28-.4,1.84-2.54,3.3a3.79,3.79,0,0,1-1,.46H30.75A7.18,7.18,0,0,1,32.62,12.06ZM21.1,11a1.12,1.12,0,0,1,.68-.22A4.29,4.29,0,0,1,24.92,12a8.56,8.56,0,0,1,1.85,2.74H24.6a4,4,0,0,1-1-.46C21.49,12.84,21,11.28,21.1,11ZM14.75,32.11a3.35,3.35,0,0,1,2.63-.92,4.22,4.22,0,0,1-1.91,2.26,2.7,2.7,0,0,1-.66.32H13.52A5.31,5.31,0,0,1,14.75,32.11ZM18.3,48.82v4.41H12.94V40.75H18.3Zm1.85-10.94H12.94V36.63h7.21Zm3.54,9.54H21.17V40.75h.41A1.43,1.43,0,0,0,23,39.32V35.2a1.43,1.43,0,0,0-1.43-1.43H19.25a5,5,0,0,0,.94-2,2.77,2.77,0,0,0-.4-2.15,3,3,0,0,0-2.18-1.25l-.28,0v-4.7h6.36Zm7.35,0H26.55V23.63H31ZM16,20.76V17.63H41.63v3.13ZM36.42,34.18a1.94,1.94,0,0,0-1.94,1.94v4.49a1.93,1.93,0,0,0,1.83,1.93v4.88H33.9V23.63h6.36v5.1a2.59,2.59,0,0,0-.44.5,3.09,3.09,0,0,0-.43,2.33,6.07,6.07,0,0,0,1.34,2.62Zm8.63,19H39.18V42.55h5.87Zm0-13.54h-7.7V37h7.7Zm.33-5.51a3.26,3.26,0,0,1-.88-.42c-1.82-1.24-2.39-2.62-2.32-2.9l.1-.06.07,0a3.63,3.63,0,0,1,3.22,1,7.57,7.57,0,0,1,1.63,2.37Zm5.18,19H47.92V42.55h2.64Zm0-13.54H47.92V37h2.64Zm.66-5.51a6.46,6.46,0,0,1,1.64-2.33c1.54-1.31,3.18-1.25,3.43-1,.09.31-.48,1.69-2.32,2.94a3.43,3.43,0,0,1-.86.41Zm8.09,19H53.43V42.55h5.88Zm1.82-13.54h-7.7V37h7.7Z" fill="#e91e63"/><text x="0" y="79" fill="#e91e63" font-size="5px" font-weight="bold" font-family="'Helvetica Neue', Helvetica, Arial-Unicode, Arial, Sans-serif">Created by Vector Portal</text><text x="0" y="84" fill="#e91e63" font-size="5px" font-weight="bold" font-family="'Helvetica Neue', Helvetica, Arial-Unicode, Arial, Sans-serif">from the Noun Project</text></svg>